# xmcd CD database file
# Copyright (C) 1995-1998 Ti Kan
#
# Track frame offsets:
#	150
#	10546
#	24712
#	34461
#	52408
#	65829
#	76866
#	92480
#	113342
#	125449
#	133623
#	145474
#	158363
#	165525
#	175865
#	183897
#	250001
#	261742
#	273250
#
# Disc length: 3821 seconds
#
# Revision: 1
# Processed by: cddbd v1.4PL0 Copyright (c) Steve Scherf et al.
# Submitted via: CDex 1.30Release
#
DISCID=010eeb13
DTITLE=Various Artist - Big Country Christmas
DYEAR=1900
DGENRE=Country
TTITLE0=Kitty Wells - Christmas
TTITLE1=Anita Bryant - Do You Hear What I Hear
TTITLE2=Gene Autry - Up On The Housetop
TTITLE3=Gene Autry - Oh Little Town Of Bethlehem
TTITLE4=Jimmy Dean - Silent Night
TTITLE5=Bobby Helms - Jingle Bells
TTITLE6=Charles Brown - Merry Christmas Baby
TTITLE7=Blue Ridge Players - It Came Upon a Midnight Clear - Oh Come All Ye 
TTITLE7=Faithful
TTITLE8=Blue Ridge Players - There's No Place Like Home For the Holidays
TTITLE9=Jimmy Wakely and Three Days - It's Christmas
TTITLE10=Jimmy Wakely and Inez Wakely - Star Of Hope
TTITLE11=Jimmy Wakely and Three Days - Oh Come All Ye Faithful
TTITLE12=Jimmy Wakely - The Winter Song
TTITLE13=Gene Autry - Buone Natale
TTITLE14=Gene Autry - 32 Feet and Eight Little Tails
TTITLE15=Gene Autry - The Sotry Of The Nativity
TTITLE16=Faron Young - Candy Land
TTITLE17=Faron Young - Happy Birthday Jesus
TTITLE18=Faron Young - The Sotry of Silent Night
EXTD=ID3G:   2
EXTT0=
EXTT1=
EXTT2=
EXTT3=
EXTT4=
EXTT5=
EXTT6=
EXTT7=
EXTT8=
EXTT9=
EXTT10=
EXTT11=
EXTT12=
EXTT13=
EXTT14=
EXTT15=
EXTT16=
EXTT17=
EXTT18=
PLAYORDER=
